# This file uses centimeters as units for non-parametric coordinates.

mtllib Sanitary_Mirrors_Alterna_Bliss-Mirrors.mtl


g default

# VertexData Begin
# Vertices (Number of Vertices = 272)
v -300 -15 3.730349e-14
v -300 -5 3.730349e-14
v -295.1204 -15 -53.88849
v -295.1204 -5 -53.88849
v -294.4741 -15 57.31515
v -294.4741 -5 57.31515
v -285 -20 3.552714e-14
v -285 -15 3.552714e-14
v -283.8669 -20 25.38834
v -283.8669 -15 25.38834
v -283.4669 -20 -29.52087
v -283.4669 -15 -29.52087
v -279.7054 -20 54.68008
v -279.7054 -15 54.68008
v -279.4842 -15 -109.0349
v -279.4842 -5 -109.0349
v -279.0279 -20 -58.03801
v -279.0279 -15 -58.03801
v -277.507 -15 113.9731
v -277.507 -5 113.9731
v -272.7473 -20 82.66732
v -272.7473 -15 82.66732
v -271.4548 -20 -86.81747
v -271.4548 -15 -86.81747
v -262.7065 -20 110.5001
v -262.7065 -15 110.5001
v -260.61 -20 -115.3578
v -260.61 -15 -115.3578
v -252.3594 -15 -162.2181
v -252.3594 -5 -162.2181
v -249.5377 -20 137.6806
v -249.5377 -15 137.6806
v -248.9618 -15 167.3858
v -248.9618 -5 167.3858
v -246.67 -20 -142.7547
v -246.67 -15 -142.7547
v -233.3026 -20 163.6915
v -233.3026 -15 163.6915
v -229.8656 -20 -168.4838
v -229.8656 -15 -168.4838
v -214.33 -15 -209.9111
v -214.33 -5 -209.9111
v -214.1761 -20 188.0256
v -214.1761 -15 188.0256
v -210.216 -20 -192.4427
v -210.216 -15 -192.4427
v -209.9111 -15 214.33
v -209.9111 -5 214.33
v -192.4427 -20 210.216
v -192.4427 -15 210.216
v -188.0256 -20 -214.1761
v -188.0256 -15 -214.1761
v -168.4838 -20 229.8656
v -168.4838 -15 229.8656
v -167.3858 -15 -248.9618
v -167.3858 -5 -248.9618
v -166 -5 -225
v -166 -5 225
v -166 0 -225
v -166 0 225
v -163.6915 -20 -233.3026
v -163.6915 -15 -233.3026
v -162.2181 -15 252.3594
v -162.2181 -5 252.3594
v -146 -5 -225
v -146 -5 225
v -146 0 -225
v -146 0 225
v -142.7547 -20 246.67
v -142.7547 -15 246.67
v -137.6806 -20 -249.5377
v -137.6806 -15 -249.5377
v -115.3578 -20 260.61
v -115.3578 -15 260.61
v -113.9731 -15 -277.507
v -113.9731 -5 -277.507
v -110.5001 -20 -262.7065
v -110.5001 -15 -262.7065
v -109.0349 -15 279.4842
v -109.0349 -5 279.4842
v -100 -5 -250
v -100 -5 -72.09643
v -100 -7.105427e-15 -250
v -100 -7.105427e-15 -72.09643
v -86.81747 -20 271.4548
v -86.81747 -15 271.4548
v -82.66732 -20 -272.7473
v -82.66732 -15 -272.7473
v -58.03801 -20 279.0279
v -58.03801 -15 279.0279
v -57.31515 -15 -294.4741
v -57.31515 -5 -294.4741
v -54.68008 -20 -279.7054
v -54.68008 -15 -279.7054
v -53.88849 -15 295.1204
v -53.88849 -5 295.1204
v -29.52087 -20 283.4669
v -29.52087 -15 283.4669
v -25.38834 -20 -283.8669
v -25.38834 -15 -283.8669
v -8 -20 -200
v -8 -15 -200
v -7.438306 -20 -202.9448
v -7.438306 -20 -197.0552
v -7.438306 -15 -202.9448
v -7.438306 -15 -197.0552
v -6 -20 -200
v -6 -15 -200
v -5.656854 -20 -205.6569
v -5.656854 -20 -194.3431
v -5.656854 -15 -205.6569
v -5.656854 -15 -194.3431
v -5.589684 -20 -197.8193
v -5.589684 -15 -197.8193
v -5.55014 -20 -202.2795
v -5.55014 -15 -202.2795
v -4.2866 -20 -195.8018
v -4.2866 -15 -195.8018
v -4.198222 -20 -204.2866
v -4.198222 -15 -204.2866
v -2.944758 -20 -207.4383
v -2.944758 -20 -192.5617
v -2.944758 -15 -207.4383
v -2.944758 -15 -192.5617
v -2.279463 -20 -194.4499
v -2.279463 -15 -194.4499
v -2.180697 -20 -205.5897
v -2.180697 -15 -205.5897
v -5.983518e-14 -15 -300
v -5.983518e-14 -5 -300
v -5.506706e-14 -20 -285
v -5.506706e-14 -15 -285
v -4.973799e-14 -20 -208
v -4.973799e-14 -15 -208
v -4.884981e-14 -20 -206
v -4.884981e-14 -15 -206
v -4.796163e-14 -20 -194
v -4.796163e-14 -15 -194
v -4.707346e-14 -20 -192
v -4.707346e-14 -15 -192
v 0 -20 285
v 0 -15 285
v 0 -15 300
v 0 -5 300
v 2.180697 -20 -194.4103
v 2.180697 -15 -194.4103
v 2.279463 -20 -205.5501
v 2.279463 -15 -205.5501
v 2.944758 -20 -207.4383
v 2.944758 -20 -192.5617
v 2.944758 -15 -207.4383
v 2.944758 -15 -192.5617
v 4.198222 -20 -195.7134
v 4.198222 -15 -195.7134
v 4.2866 -20 -204.1982
v 4.2866 -15 -204.1982
v 5.55014 -20 -197.7205
v 5.55014 -15 -197.7205
v 5.589684 -20 -202.1807
v 5.589684 -15 -202.1807
v 5.656854 -20 -205.6569
v 5.656854 -20 -194.3431
v 5.656854 -15 -205.6569
v 5.656854 -15 -194.3431
v 6 -20 -200
v 6 -15 -200
v 7.438306 -20 -202.9448
v 7.438306 -20 -197.0552
v 7.438306 -15 -202.9448
v 7.438306 -15 -197.0552
v 8 -20 -200
v 8 -15 -200
v 25.38834 -20 283.8669
v 25.38834 -15 283.8669
v 29.52087 -20 -283.4669
v 29.52087 -15 -283.4669
v 53.88849 -15 -295.1204
v 53.88849 -5 -295.1204
v 54.68008 -20 279.7054
v 54.68008 -15 279.7054
v 57.31515 -15 294.4741
v 57.31515 -5 294.4741
v 58.03801 -20 -279.0279
v 58.03801 -15 -279.0279
v 82.66732 -20 272.7473
v 82.66732 -15 272.7473
v 86.81747 -20 -271.4548
v 86.81747 -15 -271.4548
v 100 -5 -250
v 100 -5 -72.09643
v 100 -7.105427e-15 -250
v 100 -7.105427e-15 -72.09643
v 109.0349 -15 -279.4842
v 109.0349 -5 -279.4842
v 110.5001 -20 262.7065
v 110.5001 -15 262.7065
v 113.9731 -15 277.507
v 113.9731 -5 277.507
v 115.3578 -20 -260.61
v 115.3578 -15 -260.61
v 137.6806 -20 249.5377
v 137.6806 -15 249.5377
v 142.7547 -20 -246.67
v 142.7547 -15 -246.67
v 146 -5 -225
v 146 -5 225
v 146 0 -225
v 146 0 225
v 162.2181 -15 -252.3594
v 162.2181 -5 -252.3594
v 163.6915 -20 233.3026
v 163.6915 -15 233.3026
v 166 -5 -225
v 166 -5 225
v 166 0 -225
v 166 0 225
v 167.3858 -15 248.9618
v 167.3858 -5 248.9618
v 168.4838 -20 -229.8656
v 168.4838 -15 -229.8656
v 188.0256 -20 214.1761
v 188.0256 -15 214.1761
v 192.4427 -20 -210.216
v 192.4427 -15 -210.216
v 209.9111 -15 -214.33
v 209.9111 -5 -214.33
v 210.216 -20 192.4427
v 210.216 -15 192.4427
v 214.1761 -20 -188.0256
v 214.1761 -15 -188.0256
v 214.33 -15 209.9111
v 214.33 -5 209.9111
v 229.8656 -20 168.4838
v 229.8656 -15 168.4838
v 233.3026 -20 -163.6915
v 233.3026 -15 -163.6915
v 246.67 -20 142.7547
v 246.67 -15 142.7547
v 248.9618 -15 -167.3858
v 248.9618 -5 -167.3858
v 249.5377 -20 -137.6806
v 249.5377 -15 -137.6806
v 252.3594 -15 162.2181
v 252.3594 -5 162.2181
v 260.61 -20 115.3578
v 260.61 -15 115.3578
v 262.7065 -20 -110.5001
v 262.7065 -15 -110.5001
v 271.4548 -20 86.81747
v 271.4548 -15 86.81747
v 272.7473 -20 -82.66732
v 272.7473 -15 -82.66732
v 277.507 -15 -113.9731
v 277.507 -5 -113.9731
v 279.0279 -20 58.03801
v 279.0279 -15 58.03801
v 279.4842 -15 109.0349
v 279.4842 -5 109.0349
v 279.7054 -20 -54.68008
v 279.7054 -15 -54.68008
v 283.4669 -20 29.52087
v 283.4669 -15 29.52087
v 283.8669 -20 -25.38834
v 283.8669 -15 -25.38834
v 285 -20 0
v 285 -15 0
v 294.4741 -15 -57.31515
v 294.4741 -5 -57.31515
v 295.1204 -15 53.88849
v 295.1204 -5 53.88849
v 300 -15 -7.283063e-14
v 300 -5 -7.283063e-14

# Vertex normals (Number of vertex normals = 114)
vn -1 0 6.490251e-17
vn -0.9960243 0 0.08908188
vn -0.9946209 0 -0.103582
vn -0.9837345 0 -0.1796283
vn -0.9815803 0 0.1910505
vn -0.9814224 0 0.1918599
vn -0.9790454 0 -0.2036421
vn -0.9570082 0 0.2900608
vn -0.9524731 0 -0.3046227
vn -0.9316139 0 -0.3634495
vn -0.9316139 0 0.3634495
vn -0.9297884 0 -0.3680947
vn -0.9297884 0 0.3680947
vn -0.9250233 0 -0.3799104
vn -0.9250233 0 0.3799104
vn -0.9217773 0 0.3877198
vn -0.9144211 0 -0.4047641
vn -0.8755709 0 0.4830897
vn -0.8655087 0 -0.5008938
vn -0.8411981 0 -0.5407271
vn -0.8298727 0 0.5579528
vn -0.8186056 0 0.5743561
vn -0.8065462 0 -0.5911711
vn -0.751495 0 0.6597388
vn -0.7376001 0 -0.6752378
vn -0.7144333 0 -0.6997036
vn -0.7144333 0 0.6997036
vn -0.7071068 0 -0.7071068
vn -0.7071068 0 0.7071068
vn -0.6997036 0 -0.7144333
vn -0.6997036 0 0.7144333
vn -0.6752378 0 0.7376001
vn -0.6597388 0 -0.751495
vn -0.5911711 0 0.8065462
vn -0.5743561 0 -0.8186056
vn -0.5579528 0 -0.8298727
vn -0.5407271 0 0.8411981
vn -0.5008938 0 0.8655087
vn -0.4830897 0 -0.8755709
vn -0.4047641 0 0.9144211
vn -0.3877198 0 -0.9217773
vn -0.3799104 0 -0.9250233
vn -0.3799104 0 0.9250233
vn -0.3680947 0 -0.9297884
vn -0.3680947 0 0.9297884
vn -0.3634495 0 -0.9316139
vn -0.3634495 0 0.9316139
vn -0.3046227 0 0.9524731
vn -0.2900608 0 -0.9570082
vn -0.2036421 0 0.9790454
vn -0.1918599 0 -0.9814224
vn -0.1910505 0 -0.9815803
vn -0.1796283 0 0.9837345
vn -0.103582 0 0.9946209
vn -0.08908188 0 -0.9960243
vn 0 -1 0
vn -6.490251e-17 0 -1
vn 7.892146e-15 0 1
vn -1.826025e-18 1 0
vn 0.08908188 0 0.9960243
vn 0.103582 0 -0.9946209
vn 0.1796283 0 -0.9837345
vn 0.1910505 0 0.9815803
vn 0.1918599 0 0.9814224
vn 0.2036421 0 -0.9790454
vn 0.2900608 0 0.9570082
vn 0.3046227 0 -0.9524731
vn 0.3634495 0 -0.9316139
vn 0.3634495 0 0.9316139
vn 0.3680947 0 -0.9297884
vn 0.3680947 0 0.9297884
vn 0.3799104 0 -0.9250233
vn 0.3799104 0 0.9250233
vn 0.3877198 0 0.9217773
vn 0.4047641 0 -0.9144211
vn 0.4830897 0 0.8755709
vn 0.5008938 0 -0.8655087
vn 0.5407271 0 -0.8411981
vn 0.5579528 0 0.8298727
vn 0.5743561 0 0.8186056
vn 0.5911711 0 -0.8065462
vn 0.6597388 0 0.751495
vn 0.6752378 0 -0.7376001
vn 0.6997036 0 -0.7144333
vn 0.6997036 0 0.7144333
vn 0.7071068 0 -0.7071068
vn 0.7071068 0 0.7071068
vn 0.7144333 0 -0.6997036
vn 0.7144333 0 0.6997036
vn 0.7376001 0 0.6752378
vn 0.751495 0 -0.6597388
vn 0.8065462 0 0.5911711
vn 0.8186056 0 -0.5743561
vn 0.8298727 0 -0.5579528
vn 0.8411981 0 0.5407271
vn 0.8655087 0 0.5008938
vn 0.8755709 0 -0.4830897
vn 0.9144211 0 0.4047641
vn 0.9217773 0 -0.3877198
vn 0.9250233 0 -0.3799104
vn 0.9250233 0 0.3799104
vn 0.9297884 0 -0.3680947
vn 0.9297884 0 0.3680947
vn 0.9316139 0 -0.3634495
vn 0.9316139 0 0.3634495
vn 0.9524731 0 0.3046227
vn 0.9570082 0 -0.2900608
vn 0.9790454 0 0.2036421
vn 0.9814224 0 -0.1918599
vn 0.9815803 0 -0.1910505
vn 0.9837345 0 0.1796283
vn 0.9946209 0 0.103582
vn 0.9960243 0 -0.08908188
vn 1 0 -2.466296e-16

# VertexData End
# Elements Begin

# Faces (Number of Faces = 524)

usemtl f15a50d5_fe3c_4772_93cf_1dd400812ca5
f 72//59 62//59 106//59
f 102//59 88//59 78//59
f 102//59 78//59 72//59
f 40//59 36//59 112//59
f 106//59 62//59 52//59
f 112//59 46//59 40//59
f 52//59 46//59 112//59
f 88//59 105//59 94//59
f 88//59 102//59 105//59
f 105//59 111//59 94//59
f 100//59 111//59 123//59
f 123//59 134//59 132//59
f 132//59 100//59 123//59
f 102//59 72//59 106//59
f 124//59 112//59 28//59
f 28//59 112//59 36//59
f 52//59 112//59 106//59
f 94//59 111//59 100//59
f 140//59 124//59 38//59
f 124//59 24//59 18//59
f 18//59 12//59 124//59
f 124//59 8//59 10//59
f 8//59 124//59 12//59
f 10//59 14//59 124//59
f 14//59 22//59 124//59
f 124//59 22//59 26//59
f 24//59 124//59 28//59
f 38//59 124//59 32//59
f 38//59 44//59 140//59
f 54//59 140//59 50//59
f 124//59 26//59 32//59
f 54//59 70//59 140//59
f 74//59 86//59 140//59
f 140//59 70//59 74//59
f 140//59 44//59 50//59
f 90//59 140//59 86//59
f 90//59 98//59 140//59
f 98//59 142//59 140//59
f 176//59 132//59 151//59
f 184//59 163//59 169//59
f 151//59 163//59 176//59
f 248//59 164//59 152//59
f 169//59 172//59 188//59
f 172//59 170//59 200//59
f 220//59 170//59 164//59
f 163//59 184//59 176//59
f 140//59 234//59 152//59
f 172//59 200//59 188//59
f 170//59 220//59 204//59
f 200//59 170//59 204//59
f 224//59 220//59 164//59
f 236//59 230//59 164//59
f 164//59 248//59 242//59
f 242//59 236//59 164//59
f 230//59 224//59 164//59
f 169//59 188//59 184//59
f 252//59 248//59 152//59
f 222//59 228//59 140//59
f 222//59 140//59 212//59
f 196//59 202//59 140//59
f 174//59 180//59 140//59
f 140//59 180//59 186//59
f 202//59 212//59 140//59
f 186//59 196//59 140//59
f 140//59 142//59 174//59
f 152//59 246//59 250//59
f 152//59 262//59 266//59
f 266//59 264//59 152//59
f 256//59 262//59 152//59
f 228//59 234//59 140//59
f 238//59 246//59 152//59
f 234//59 238//59 152//59
f 152//59 250//59 256//59
f 260//59 152//59 264//59
f 252//59 152//59 260//59
f 151//59 132//59 134//59
f 71//56 104//56 61//56
f 101//56 77//56 87//56
f 101//56 71//56 77//56
f 39//56 110//56 35//56
f 104//56 51//56 61//56
f 110//56 39//56 45//56
f 51//56 110//56 45//56
f 87//56 93//56 103//56
f 87//56 103//56 101//56
f 103//56 93//56 109//56
f 99//56 121//56 109//56
f 121//56 131//56 133//56
f 131//56 121//56 99//56
f 101//56 104//56 71//56
f 122//56 27//56 110//56
f 27//56 35//56 110//56
f 51//56 104//56 110//56
f 93//56 99//56 109//56
f 139//56 37//56 122//56
f 122//56 17//56 23//56
f 17//56 122//56 11//56
f 122//56 9//56 7//56
f 7//56 11//56 122//56
f 9//56 122//56 13//56
f 13//56 122//56 21//56
f 122//56 25//56 21//56
f 23//56 27//56 122//56
f 37//56 31//56 122//56
f 37//56 139//56 43//56
f 53//56 49//56 139//56
f 122//56 31//56 25//56
f 53//56 139//56 69//56
f 73//56 139//56 85//56
f 139//56 73//56 69//56
f 139//56 49//56 43//56
f 89//56 85//56 139//56
f 89//56 139//56 97//56
f 97//56 139//56 141//56
f 175//56 149//56 131//56
f 183//56 167//56 161//56
f 149//56 175//56 161//56
f 247//56 150//56 162//56
f 167//56 187//56 171//56
f 171//56 199//56 168//56
f 219//56 162//56 168//56
f 161//56 175//56 183//56
f 139//56 150//56 233//56
f 171//56 187//56 199//56
f 168//56 203//56 219//56
f 199//56 203//56 168//56
f 223//56 162//56 219//56
f 235//56 162//56 229//56
f 162//56 241//56 247//56
f 241//56 162//56 235//56
f 229//56 162//56 223//56
f 167//56 183//56 187//56
f 251//56 150//56 247//56
f 221//56 139//56 227//56
f 221//56 211//56 139//56
f 195//56 139//56 201//56
f 173//56 139//56 179//56
f 139//56 185//56 179//56
f 201//56 139//56 211//56
f 185//56 139//56 195//56
f 139//56 173//56 141//56
f 150//56 249//56 245//56
f 150//56 265//56 261//56
f 265//56 150//56 263//56
f 255//56 150//56 261//56
f 227//56 139//56 233//56
f 237//56 150//56 245//56
f 233//56 150//56 237//56
f 150//56 255//56 249//56
f 259//56 263//56 150//56
f 251//56 259//56 150//56
f 149//56 133//56 131//56
f 262//112 261//112 265//114
f 265//114 266//114 262//112
f 256//108 255//108 261//112
f 261//112 262//112 256//108
f 246//98 245//98 249//106
f 249//106 250//106 246//98
f 234//92 233//92 237//96
f 237//96 238//96 234//92
f 238//96 237//96 245//98
f 245//98 246//98 238//96
f 250//106 249//106 255//108
f 255//108 256//108 250//106
f 222//82 221//82 227//90
f 227//90 228//90 222//82
f 202//76 201//76 211//80
f 211//80 212//80 202//76
f 212//80 211//80 221//82
f 221//82 222//82 212//80
f 186//66 185//66 195//74
f 195//74 196//74 186//66
f 174//60 173//60 179//64
f 179//64 180//64 174//60
f 180//64 179//64 185//66
f 185//66 186//66 180//64
f 196//74 195//74 201//76
f 201//76 202//76 196//74
f 228//90 227//90 233//92
f 233//92 234//92 228//90
f 98//54 97//54 141//58
f 141//58 142//58 98//54
f 90//50 89//50 97//54
f 97//54 98//54 90//50
f 74//40 73//40 85//48
f 85//48 86//48 74//40
f 54//34 53//34 69//38
f 69//38 70//38 54//34
f 70//38 69//38 73//40
f 73//40 74//40 70//38
f 86//48 85//48 89//50
f 89//50 90//50 86//48
f 44//24 43//24 49//32
f 49//32 50//32 44//24
f 32//18 31//18 37//22
f 37//22 38//22 32//18
f 38//22 37//22 43//24
f 43//24 44//24 38//22
f 22//8 21//8 25//16
f 25//16 26//16 22//8
f 10//2 9//2 13//6
f 13//6 14//6 10//2
f 14//6 13//6 21//8
f 21//8 22//8 14//6
f 26//16 25//16 31//18
f 31//18 32//18 26//16
f 50//32 49//32 53//34
f 53//34 54//34 50//32
f 142//58 141//58 173//60
f 173//60 174//60 142//58
f 8//1 7//1 9//2
f 9//2 10//2 8//1
f 18//7 17//7 11//3
f 11//3 12//3 18//7
f 24//9 23//9 17//7
f 17//7 18//7 24//9
f 36//19 35//19 27//17
f 27//17 28//17 36//19
f 46//25 45//25 39//23
f 39//23 40//23 46//25
f 40//23 39//23 35//19
f 35//19 36//19 40//23
f 28//17 27//17 23//9
f 23//9 24//9 28//17
f 62//35 61//35 51//33
f 51//33 52//33 62//35
f 78//41 77//41 71//39
f 71//39 72//39 78//41
f 72//39 71//39 61//35
f 61//35 62//35 72//39
f 94//51 93//51 87//49
f 87//49 88//49 94//51
f 132//57 131//57 99//55
f 99//55 100//55 132//57
f 100//55 99//55 93//51
f 93//51 94//51 100//55
f 88//49 87//49 77//41
f 77//41 78//41 88//49
f 52//33 51//33 45//25
f 45//25 46//25 52//33
f 184//65 183//65 175//61
f 175//61 176//61 184//65
f 188//67 187//67 183//65
f 183//65 184//65 188//67
f 204//77 203//77 199//75
f 199//75 200//75 204//77
f 224//83 223//83 219//81
f 219//81 220//81 224//83
f 220//81 219//81 203//77
f 203//77 204//77 220//81
f 200//75 199//75 187//67
f 187//67 188//67 200//75
f 236//93 235//93 229//91
f 229//91 230//91 236//93
f 248//99 247//99 241//97
f 241//97 242//97 248//99
f 242//97 241//97 235//93
f 235//93 236//93 242//97
f 260//109 259//109 251//107
f 251//107 252//107 260//109
f 266//114 265//114 263//113
f 263//113 264//113 266//114
f 264//113 263//113 259//109
f 259//109 260//109 264//113
f 252//107 251//107 247//99
f 247//99 248//99 252//107
f 230//91 229//91 223//83
f 223//83 224//83 230//91
f 176//61 175//61 131//57
f 131//57 132//57 176//61
f 12//3 11//3 7//1
f 7//1 8//1 12//3
f 171//1 172//1 169//13
f 169//13 167//13 171//1
f 161//29 163//29 151//45
f 151//45 149//45 161//29
f 167//13 169//13 163//29
f 163//29 161//29 167//13
f 133//58 134//58 123//71
f 123//71 121//71 133//58
f 109//87 111//87 105//103
f 105//103 103//103 109//87
f 121//71 123//71 111//87
f 111//87 109//87 121//71
f 149//45 151//45 134//58
f 134//58 133//58 149//45
f 101//114 103//103 105//103
f 105//103 102//114 101//114
f 110//86 104//102 106//102
f 106//102 112//86 110//86
f 122//70 124//70 140//57
f 140//57 139//57 122//70
f 110//86 112//86 124//70
f 124//70 122//70 110//86
f 150//44 152//44 164//28
f 164//28 162//28 150//44
f 168//12 170//12 172//1
f 172//1 171//1 168//12
f 162//28 164//28 170//12
f 170//12 168//12 162//28
f 139//57 140//57 152//44
f 152//44 150//44 139//57
f 104//102 101//114 102//114
f 102//114 106//102 104//102

usemtl 6ca8c2b3_1257_4ee2_81b3_aff7a09db636
f 215//114 216//114 214//114
f 214//114 213//114 215//114
f 216//58 208//58 206//58
f 206//58 214//58 216//58
f 208//1 207//1 205//1
f 205//1 206//1 208//1
f 207//57 215//57 213//57
f 213//57 205//57 207//57
f 215//59 207//59 208//59
f 208//59 216//59 215//59
f 213//56 206//56 205//56
f 206//56 213//56 214//56
f 59//57 67//57 65//57
f 65//57 57//57 59//57
f 67//114 68//114 66//114
f 66//114 65//114 67//114
f 68//58 60//58 58//58
f 58//58 66//58 68//58
f 60//1 59//1 57//1
f 57//1 58//1 60//1
f 67//59 59//59 60//59
f 60//59 68//59 67//59
f 65//56 58//56 57//56
f 58//56 65//56 66//56

usemtl 36d00bc5_58f0_4d4a_837c_a1477bff6663
f 5//56 33//56 19//56
f 1//56 15//56 5//56
f 47//56 33//56 5//56
f 63//56 95//56 79//56
f 95//56 63//56 47//56
f 5//56 15//56 47//56
f 15//56 269//56 47//56
f 15//56 29//56 269//56
f 29//56 41//56 55//56
f 15//56 1//56 3//56
f 91//56 55//56 75//56
f 29//56 55//56 91//56
f 29//56 91//56 225//56
f 91//56 129//56 177//56
f 231//56 95//56 47//56
f 197//56 181//56 143//56
f 95//56 231//56 197//56
f 217//56 197//56 231//56
f 269//56 243//56 231//56
f 243//56 269//56 257//56
f 231//56 47//56 269//56
f 269//56 29//56 239//56
f 193//56 209//56 225//56
f 193//56 91//56 177//56
f 91//56 193//56 225//56
f 253//56 267//56 271//56
f 271//56 239//56 253//56
f 239//56 29//56 225//56
f 269//56 239//56 271//56
f 143//56 95//56 197//56
f 6//59 20//59 34//59
f 2//59 6//59 16//59
f 48//59 6//59 34//59
f 64//59 80//59 96//59
f 96//59 48//59 64//59
f 6//59 48//59 16//59
f 16//59 48//59 270//59
f 16//59 270//59 30//59
f 30//59 56//59 42//59
f 16//59 4//59 2//59
f 92//59 76//59 56//59
f 30//59 92//59 56//59
f 30//59 226//59 92//59
f 92//59 178//59 130//59
f 232//59 48//59 96//59
f 198//59 144//59 182//59
f 96//59 198//59 232//59
f 218//59 232//59 198//59
f 270//59 232//59 244//59
f 244//59 258//59 270//59
f 232//59 270//59 48//59
f 270//59 240//59 30//59
f 194//59 226//59 210//59
f 194//59 178//59 92//59
f 92//59 226//59 194//59
f 254//59 272//59 268//59
f 272//59 254//59 240//59
f 240//59 226//59 30//59
f 270//59 272//59 240//59
f 144//59 198//59 96//59
f 267//110 268//110 272//114
f 272//114 271//114 267//110
f 239//94 240//94 254//100
f 254//100 253//100 239//94
f 253//100 254//100 268//110
f 268//110 267//110 253//100
f 209//78 210//78 226//84
f 226//84 225//84 209//78
f 177//62 178//62 194//68
f 194//68 193//68 177//62
f 193//68 194//68 210//78
f 210//78 209//78 193//68
f 225//84 226//84 240//94
f 240//94 239//94 225//84
f 91//52 92//52 130//57
f 130//57 129//57 91//52
f 55//36 56//36 76//42
f 76//42 75//42 55//36
f 75//42 76//42 92//52
f 92//52 91//52 75//42
f 29//20 30//20 42//26
f 42//26 41//26 29//20
f 3//4 4//4 16//10
f 16//10 15//10 3//4
f 15//10 16//10 30//20
f 30//20 29//20 15//10
f 41//26 42//26 56//36
f 56//36 55//36 41//26
f 129//57 130//57 178//62
f 178//62 177//62 129//57
f 1//1 2//1 4//4
f 4//4 3//4 1//1
f 19//15 20//15 6//5
f 6//5 5//5 19//15
f 47//31 48//31 34//21
f 34//21 33//21 47//31
f 33//21 34//21 20//15
f 20//15 19//15 33//21
f 79//47 80//47 64//37
f 64//37 63//37 79//47
f 143//58 144//58 96//53
f 96//53 95//53 143//58
f 95//53 96//53 80//47
f 80//47 79//47 95//53
f 63//37 64//37 48//31
f 48//31 47//31 63//37
f 197//73 198//73 182//63
f 182//63 181//63 197//73
f 231//89 232//89 218//79
f 218//79 217//79 231//89
f 217//79 218//79 198//73
f 198//73 197//73 217//79
f 257//105 258//105 244//95
f 244//95 243//95 257//105
f 271//114 272//114 270//111
f 270//111 269//111 271//114
f 269//111 270//111 258//105
f 258//105 257//105 269//111
f 243//95 244//95 232//89
f 232//89 231//89 243//95
f 181//63 182//63 144//58
f 144//58 143//58 181//63
f 5//5 6//5 2//1
f 2//1 1//1 5//5

usemtl f15a50d5_fe3c_4772_93cf_1dd400812ca5
f 120//59 116//59 108//59
f 128//59 120//59 108//59
f 108//59 154//59 128//59
f 126//59 108//59 114//59
f 114//59 118//59 126//59
f 154//59 108//59 126//59
f 154//59 136//59 128//59
f 160//59 156//59 148//59
f 148//59 166//59 160//59
f 154//59 166//59 148//59
f 154//59 138//59 146//59
f 154//59 126//59 138//59
f 154//59 158//59 166//59
f 148//59 136//59 154//59
f 119//56 107//56 115//56
f 127//56 107//56 119//56
f 107//56 127//56 153//56
f 125//56 113//56 107//56
f 113//56 125//56 117//56
f 153//56 125//56 107//56
f 153//56 127//56 135//56
f 159//56 147//56 155//56
f 147//56 159//56 165//56
f 153//56 147//56 165//56
f 153//56 145//56 137//56
f 153//56 137//56 125//56
f 153//56 165//56 157//56
f 147//56 153//56 135//56
f 158//101 157//101 165//114
f 165//114 166//114 158//101
f 146//69 145//69 153//85
f 153//85 154//85 146//69
f 154//85 153//85 157//101
f 157//101 158//101 154//85
f 126//43 125//43 137//58
f 137//58 138//58 126//43
f 114//11 113//11 117//27
f 117//27 118//27 114//11
f 118//27 117//27 125//43
f 125//43 126//43 118//27
f 138//58 137//58 145//69
f 145//69 146//69 138//58
f 108//1 107//1 113//11
f 113//11 114//11 108//1
f 120//30 119//30 115//14
f 115//14 116//14 120//30
f 136//57 135//57 127//46
f 127//46 128//46 136//57
f 128//46 127//46 119//30
f 119//30 120//30 128//46
f 156//88 155//88 147//72
f 147//72 148//72 156//88
f 166//114 165//114 159//104
f 159//104 160//104 166//114
f 160//104 159//104 155//88
f 155//88 156//88 160//104
f 148//72 147//72 135//57
f 135//57 136//57 148//72
f 116//14 115//14 107//1
f 107//1 108//1 116//14

usemtl ab039b42_adac_4f99_960b_158ea64c35a7
f 83//57 191//57 189//57
f 189//57 81//57 83//57
f 191//114 192//114 190//114
f 190//114 189//114 191//114
f 192//58 84//58 82//58
f 82//58 190//58 192//58
f 84//1 83//1 81//1
f 81//1 82//1 84//1
f 191//59 83//59 84//59
f 84//59 192//59 191//59
f 189//56 82//56 81//56
f 82//56 189//56 190//56

# Elements End

# endsolid Sanitary_Mirrors_Alterna_Bliss-Mirrors
